<svg width="70" height="22" viewBox="0 0 70 22" fill="none" xmlns="http://www.w3.org/2000/svg">
<rect x="4.84625" y="0.5" width="1.61538" height="1.61538" fill="#C3E88D"/>
<rect x="29.0771" y="0.5" width="1.61538" height="1.61538" fill="#C3E88D"/>
<rect x="53.3075" y="0.5" width="1.61538" height="1.61538" fill="#C3E88D"/>
<rect x="3.23083" y="2.11542" width="1.61538" height="1.61538" fill="#C3E88D"/>
<rect x="27.4617" y="2.11542" width="1.61538" height="1.61538" fill="#C3E88D"/>
<rect x="51.6925" y="2.11542" width="1.61538" height="1.61538" fill="#C3E88D"/>
<rect x="6.46167" y="0.5" width="1.61538" height="1.61538" fill="#C3E88D"/>
<rect x="30.6925" y="0.5" width="1.61538" height="1.61538" fill="#C3E88D"/>
<rect x="54.9229" y="0.5" width="1.61538" height="1.61538" fill="#C3E88D"/>
<rect x="4.84625" y="2.11542" width="1.61538" height="1.61538" fill="#C3E88D"/>
<rect x="29.0771" y="2.11542" width="1.61538" height="1.61538" fill="#C3E88D"/>
<rect x="53.3075" y="2.11542" width="1.61538" height="1.61538" fill="#C3E88D"/>
<rect x="4.84625" y="3.73083" width="1.61538" height="1.61538" fill="#C3E88D"/>
<rect x="29.0771" y="3.73083" width="1.61538" height="1.61538" fill="#C3E88D"/>
<rect x="53.3075" y="3.73083" width="1.61538" height="1.61538" fill="#C3E88D"/>
<rect x="4.84625" y="19.8848" width="1.61538" height="1.61538" fill="#C3E88D"/>
<rect x="29.0771" y="19.8848" width="1.61538" height="1.61538" fill="#C3E88D"/>
<rect x="53.3075" y="19.8848" width="1.61538" height="1.61538" fill="#C3E88D"/>
<rect x="8.07709" y="3.73083" width="1.61538" height="1.61538" fill="#C3E88D"/>
<rect x="32.3075" y="3.73083" width="1.61538" height="1.61538" fill="#C3E88D"/>
<rect x="56.5387" y="3.73096" width="1.61538" height="1.61538" fill="#C3E88D"/>
<rect x="8.07709" y="19.8848" width="1.61538" height="1.61538" fill="#C3E88D"/>
<rect x="32.3075" y="19.8848" width="1.61538" height="1.61538" fill="#C3E88D"/>
<rect x="56.5387" y="19.8848" width="1.61538" height="1.61538" fill="#C3E88D"/>
<rect x="11.3075" y="3.73083" width="1.61538" height="1.61538" fill="#C3E88D"/>
<rect x="35.5387" y="3.73096" width="1.61538" height="1.61538" fill="#C3E88D"/>
<rect x="59.7692" y="3.73083" width="1.61538" height="1.61538" fill="#C3E88D"/>
<rect x="11.3075" y="19.8848" width="1.61538" height="1.61538" fill="#C3E88D"/>
<rect x="35.5387" y="19.8848" width="1.61538" height="1.61538" fill="#C3E88D"/>
<rect x="59.7692" y="19.8848" width="1.61538" height="1.61538" fill="#C3E88D"/>
<rect x="14.5387" y="3.73096" width="1.61538" height="1.61538" fill="#C3E88D"/>
<rect x="38.7692" y="3.73083" width="1.61538" height="1.61538" fill="#C3E88D"/>
<rect x="63" y="3.73083" width="1.61538" height="1.61538" fill="#C3E88D"/>
<rect x="14.5387" y="19.8848" width="1.61538" height="1.61538" fill="#C3E88D"/>
<rect x="38.7692" y="19.8848" width="1.61538" height="1.61538" fill="#C3E88D"/>
<rect x="63" y="19.8848" width="1.61538" height="1.61538" fill="#C3E88D"/>
<rect x="16.1537" y="5.34625" width="1.61538" height="1.61538" fill="#C3E88D"/>
<rect x="40.3849" y="5.34619" width="1.61538" height="1.61538" fill="#C3E88D"/>
<rect x="64.6154" y="5.34625" width="1.61538" height="1.61538" fill="#C3E88D"/>
<rect y="5.34625" width="1.61538" height="1.61538" fill="#C3E88D"/>
<rect x="24.2308" y="5.34625" width="1.61538" height="1.61538" fill="#C3E88D"/>
<rect x="48.4617" y="5.34625" width="1.61538" height="1.61538" fill="#C3E88D"/>
<rect x="1.61542" y="3.73083" width="1.61538" height="1.61538" fill="#C3E88D"/>
<rect x="25.8463" y="3.73083" width="1.61538" height="1.61538" fill="#C3E88D"/>
<rect x="50.0771" y="3.73083" width="1.61538" height="1.61538" fill="#C3E88D"/>
<rect x="1.61542" y="19.8848" width="1.61538" height="1.61538" fill="#C3E88D"/>
<rect x="25.8463" y="19.8848" width="1.61538" height="1.61538" fill="#C3E88D"/>
<rect x="50.0771" y="19.8848" width="1.61538" height="1.61538" fill="#C3E88D"/>
<rect x="16.1537" y="8.57709" width="1.61538" height="1.61538" fill="#C3E88D"/>
<rect x="40.3849" y="8.57715" width="1.61538" height="1.61538" fill="#C3E88D"/>
<rect x="64.6154" y="8.57709" width="1.61538" height="1.61538" fill="#C3E88D"/>
<rect y="8.57709" width="1.61538" height="1.61538" fill="#C3E88D"/>
<rect x="24.2308" y="8.57709" width="1.61538" height="1.61538" fill="#C3E88D"/>
<rect x="48.4617" y="8.57709" width="1.61538" height="1.61538" fill="#C3E88D"/>
<rect x="16.1537" y="11.8077" width="1.61538" height="1.61538" fill="#C3E88D"/>
<rect x="40.3849" y="11.8076" width="1.61538" height="1.61538" fill="#C3E88D"/>
<rect x="64.6154" y="11.8077" width="1.61538" height="1.61538" fill="#C3E88D"/>
<rect y="11.8077" width="1.61538" height="1.61538" fill="#C3E88D"/>
<rect x="24.2308" y="11.8077" width="1.61538" height="1.61538" fill="#C3E88D"/>
<rect x="48.4617" y="11.8077" width="1.61538" height="1.61538" fill="#C3E88D"/>
<rect x="16.1537" y="15.0386" width="1.61538" height="1.61538" fill="#C3E88D"/>
<rect x="40.3849" y="15.0386" width="1.61538" height="1.61538" fill="#C3E88D"/>
<rect x="64.6154" y="15.0386" width="1.61538" height="1.61538" fill="#C3E88D"/>
<rect y="15.0386" width="1.61538" height="1.61538" fill="#C3E88D"/>
<rect x="24.2308" y="15.0386" width="1.61538" height="1.61538" fill="#C3E88D"/>
<rect x="48.4617" y="15.0386" width="1.61538" height="1.61538" fill="#C3E88D"/>
<rect x="16.1537" y="18.2694" width="1.61538" height="1.61538" fill="#C3E88D"/>
<rect x="40.3849" y="18.2693" width="1.61538" height="1.61538" fill="#C3E88D"/>
<rect x="64.6154" y="18.2694" width="1.61538" height="1.61538" fill="#C3E88D"/>
<rect y="18.2694" width="1.61538" height="1.61538" fill="#C3E88D"/>
<rect x="24.2308" y="18.2694" width="1.61538" height="1.61538" fill="#C3E88D"/>
<rect x="48.4617" y="18.2694" width="1.61538" height="1.61538" fill="#C3E88D"/>
<rect x="8.07709" y="0.5" width="1.61538" height="1.61538" fill="#C3E88D"/>
<rect x="32.3075" y="0.5" width="1.61538" height="1.61538" fill="#C3E88D"/>
<rect x="56.5387" y="0.5" width="1.61538" height="1.61538" fill="#C3E88D"/>
<rect x="6.46167" y="2.11542" width="1.61538" height="1.61538" fill="#C3E88D"/>
<rect x="30.6925" y="2.11542" width="1.61538" height="1.61538" fill="#C3E88D"/>
<rect x="54.9229" y="2.11542" width="1.61538" height="1.61538" fill="#C3E88D"/>
<rect x="9.6925" y="0.5" width="1.61538" height="1.61538" fill="#C3E88D"/>
<rect x="33.9229" y="0.5" width="1.61538" height="1.61538" fill="#C3E88D"/>
<rect x="58.1537" y="0.5" width="1.61538" height="1.61538" fill="#C3E88D"/>
<rect x="8.07709" y="2.11542" width="1.61538" height="1.61538" fill="#C3E88D"/>
<rect x="32.3075" y="2.11542" width="1.61538" height="1.61538" fill="#C3E88D"/>
<rect x="56.5387" y="2.11548" width="1.61538" height="1.61538" fill="#C3E88D"/>
<rect x="11.3075" y="0.5" width="1.61538" height="1.61538" fill="#C3E88D"/>
<rect x="35.5387" y="0.5" width="1.61538" height="1.61538" fill="#C3E88D"/>
<rect x="59.7692" y="0.5" width="1.61538" height="1.61538" fill="#C3E88D"/>
<rect x="9.6925" y="2.11542" width="1.61538" height="1.61538" fill="#C3E88D"/>
<rect x="33.9229" y="2.11542" width="1.61538" height="1.61538" fill="#C3E88D"/>
<rect x="58.1537" y="2.11542" width="1.61538" height="1.61538" fill="#C3E88D"/>
<rect x="16.1537" y="0.5" width="1.61538" height="1.61538" fill="#C3E88D"/>
<rect x="40.3849" y="0.5" width="1.61538" height="1.61538" fill="#C3E88D"/>
<rect x="64.6154" y="0.5" width="1.61538" height="1.61538" fill="#C3E88D"/>
<rect x="14.5387" y="2.11548" width="1.61538" height="1.61538" fill="#C3E88D"/>
<rect x="38.7692" y="2.11542" width="1.61538" height="1.61538" fill="#C3E88D"/>
<rect x="63" y="2.11542" width="1.61538" height="1.61538" fill="#C3E88D"/>
<rect x="12.9229" y="0.5" width="1.61538" height="1.61538" fill="#C3E88D"/>
<rect x="37.1537" y="0.5" width="1.61538" height="1.61538" fill="#C3E88D"/>
<rect x="61.3849" y="0.5" width="1.61538" height="1.61538" fill="#C3E88D"/>
<rect x="11.3075" y="2.11542" width="1.61538" height="1.61538" fill="#C3E88D"/>
<rect x="35.5387" y="2.11548" width="1.61538" height="1.61538" fill="#C3E88D"/>
<rect x="59.7692" y="2.11542" width="1.61538" height="1.61538" fill="#C3E88D"/>
<rect x="16.1537" y="2.11542" width="1.61538" height="1.61538" fill="#C3E88D"/>
<rect x="40.3849" y="2.11548" width="1.61538" height="1.61538" fill="#C3E88D"/>
<rect x="64.6154" y="2.11542" width="1.61538" height="1.61538" fill="#C3E88D"/>
<rect x="14.5387" y="0.5" width="1.61538" height="1.61538" fill="#C3E88D"/>
<rect x="38.7692" y="0.5" width="1.61538" height="1.61538" fill="#C3E88D"/>
<rect x="63" y="0.5" width="1.61538" height="1.61538" fill="#C3E88D"/>
<rect x="12.9229" y="2.11542" width="1.61538" height="1.61538" fill="#C3E88D"/>
<rect x="37.1537" y="2.11542" width="1.61538" height="1.61538" fill="#C3E88D"/>
<rect x="61.3849" y="2.11548" width="1.61538" height="1.61538" fill="#C3E88D"/>
<rect x="17.7692" y="0.5" width="1.61538" height="1.61538" fill="#C3E88D"/>
<rect x="42" y="0.5" width="1.61538" height="1.61538" fill="#C3E88D"/>
<rect x="66.2308" y="0.5" width="1.61538" height="1.61538" fill="#C3E88D"/>
<rect x="17.7692" y="3.73083" width="1.61538" height="1.61538" fill="#96D738"/>
<rect x="42" y="3.73083" width="1.61538" height="1.61538" fill="#96D738"/>
<rect x="66.2308" y="3.73083" width="1.61538" height="1.61538" fill="#96D738"/>
<rect x="17.7692" y="5.34625" width="1.61538" height="1.61538" fill="#96D738"/>
<rect x="42" y="5.34625" width="1.61538" height="1.61538" fill="#96D738"/>
<rect x="66.2308" y="5.34625" width="1.61538" height="1.61538" fill="#96D738"/>
<rect x="17.7692" y="6.96167" width="1.61538" height="1.61538" fill="#96D738"/>
<rect x="42" y="6.96167" width="1.61538" height="1.61538" fill="#96D738"/>
<rect x="66.2308" y="6.96167" width="1.61538" height="1.61538" fill="#96D738"/>
<rect x="17.7692" y="8.57709" width="1.61538" height="1.61538" fill="#96D738"/>
<rect x="42" y="8.57709" width="1.61538" height="1.61538" fill="#96D738"/>
<rect x="66.2308" y="8.57709" width="1.61538" height="1.61538" fill="#96D738"/>
<rect x="17.7692" y="10.1925" width="1.61538" height="1.61538" fill="#96D738"/>
<rect x="42" y="10.1925" width="1.61538" height="1.61538" fill="#96D738"/>
<rect x="66.2308" y="10.1925" width="1.61538" height="1.61538" fill="#96D738"/>
<rect x="17.7692" y="11.8077" width="1.61538" height="1.61538" fill="#96D738"/>
<rect x="42" y="11.8077" width="1.61538" height="1.61538" fill="#96D738"/>
<rect x="66.2308" y="11.8077" width="1.61538" height="1.61538" fill="#96D738"/>
<rect x="17.7692" y="13.4231" width="1.61538" height="1.61538" fill="#96D738"/>
<rect x="42" y="13.4231" width="1.61538" height="1.61538" fill="#96D738"/>
<rect x="66.2308" y="13.4231" width="1.61538" height="1.61538" fill="#96D738"/>
<rect x="17.7692" y="15.0386" width="1.61538" height="1.61538" fill="#96D738"/>
<rect x="42" y="15.0386" width="1.61538" height="1.61538" fill="#96D738"/>
<rect x="66.2308" y="15.0386" width="1.61538" height="1.61538" fill="#96D738"/>
<rect x="17.7692" y="16.6539" width="1.61538" height="1.61538" fill="#96D738"/>
<rect x="42" y="16.6539" width="1.61538" height="1.61538" fill="#96D738"/>
<rect x="66.2308" y="16.6539" width="1.61538" height="1.61538" fill="#96D738"/>
<rect x="19.3849" y="2.11548" width="1.61538" height="1.61538" fill="#96D738"/>
<rect x="43.6154" y="2.11542" width="1.61538" height="1.61538" fill="#96D738"/>
<rect x="67.8463" y="2.11542" width="1.61538" height="1.61538" fill="#96D738"/>
<rect x="19.3849" y="3.73096" width="1.61538" height="1.61538" fill="#96D738"/>
<rect x="43.6154" y="3.73083" width="1.61538" height="1.61538" fill="#96D738"/>
<rect x="67.8463" y="3.73083" width="1.61538" height="1.61538" fill="#96D738"/>
<rect x="19.3849" y="5.34619" width="1.61538" height="1.61538" fill="#96D738"/>
<rect x="43.6154" y="5.34625" width="1.61538" height="1.61538" fill="#96D738"/>
<rect x="67.8463" y="5.34625" width="1.61538" height="1.61538" fill="#96D738"/>
<rect x="19.3849" y="6.96167" width="1.61538" height="1.61538" fill="#96D738"/>
<rect x="43.6154" y="6.96167" width="1.61538" height="1.61538" fill="#96D738"/>
<rect x="67.8463" y="6.96167" width="1.61538" height="1.61538" fill="#96D738"/>
<rect x="19.3849" y="8.57715" width="1.61538" height="1.61538" fill="#96D738"/>
<rect x="43.6154" y="8.57709" width="1.61538" height="1.61538" fill="#96D738"/>
<rect x="67.8463" y="8.57709" width="1.61538" height="1.61538" fill="#96D738"/>
<rect x="19.3849" y="10.1924" width="1.61538" height="1.61538" fill="#96D738"/>
<rect x="43.6154" y="10.1925" width="1.61538" height="1.61538" fill="#96D738"/>
<rect x="67.8463" y="10.1925" width="1.61538" height="1.61538" fill="#96D738"/>
<rect x="19.3849" y="11.8076" width="1.61538" height="1.61538" fill="#96D738"/>
<rect x="43.6154" y="11.8077" width="1.61538" height="1.61538" fill="#96D738"/>
<rect x="67.8463" y="11.8077" width="1.61538" height="1.61538" fill="#96D738"/>
<rect x="19.3849" y="13.4231" width="1.61538" height="1.61538" fill="#96D738"/>
<rect x="43.6154" y="13.4231" width="1.61538" height="1.61538" fill="#96D738"/>
<rect x="67.8463" y="13.4231" width="1.61538" height="1.61538" fill="#96D738"/>
<rect x="19.3849" y="15.0386" width="1.61538" height="1.61538" fill="#96D738"/>
<rect x="43.6154" y="15.0386" width="1.61538" height="1.61538" fill="#96D738"/>
<rect x="67.8463" y="15.0386" width="1.61538" height="1.61538" fill="#96D738"/>
<rect x="3.23083" y="8.57709" width="1.61538" height="1.61538" fill="#ACDF62"/>
<rect x="11.3075" y="8.57709" width="1.61538" height="1.61538" fill="#ACDF62"/>
<rect x="3.23083" y="10.1925" width="1.61538" height="1.61538" fill="#ACDF62"/>
<rect x="11.3075" y="10.1925" width="1.61538" height="1.61538" fill="#ACDF62"/>
<rect x="3.23083" y="11.8077" width="1.61538" height="1.61538" fill="#ACDF62"/>
<rect x="11.3075" y="11.8077" width="1.61538" height="1.61538" fill="#ACDF62"/>
<rect x="3.23083" y="13.4231" width="1.61538" height="1.61538" fill="#ACDF62"/>
<rect x="11.3075" y="13.4231" width="1.61538" height="1.61538" fill="#ACDF62"/>
<rect x="3.23083" y="15.0386" width="1.61538" height="1.61538" fill="#ACDF62"/>
<rect x="11.3075" y="15.0386" width="1.61538" height="1.61538" fill="#ACDF62"/>
<rect x="4.84625" y="8.57709" width="1.61538" height="1.61538" fill="#ACDF62"/>
<rect x="12.9229" y="8.57709" width="1.61538" height="1.61538" fill="#ACDF62"/>
<rect x="4.84625" y="10.1925" width="1.61538" height="1.61538" fill="#ACDF62"/>
<rect x="12.9229" y="10.1925" width="1.61538" height="1.61538" fill="#ACDF62"/>
<rect x="4.84625" y="11.8077" width="1.61538" height="1.61538" fill="#ACDF62"/>
<rect x="12.9229" y="11.8077" width="1.61538" height="1.61538" fill="#ACDF62"/>
<rect x="6.46167" y="11.8077" width="1.61538" height="1.61538" fill="#ACDF62"/>
<rect x="8.07709" y="11.8077" width="1.61538" height="1.61538" fill="#ACDF62"/>
<rect x="9.6925" y="11.8077" width="1.61538" height="1.61538" fill="#ACDF62"/>
<rect x="4.84625" y="13.4231" width="1.61538" height="1.61538" fill="#ACDF62"/>
<rect x="12.9229" y="13.4231" width="1.61538" height="1.61538" fill="#ACDF62"/>
<rect x="4.84625" y="15.0386" width="1.61538" height="1.61538" fill="#ACDF62"/>
<rect x="12.9229" y="15.0386" width="1.61538" height="1.61538" fill="#ACDF62"/>
<rect x="51.6925" y="10.1925" width="1.61538" height="1.61538" fill="#ACDF62"/>
<rect x="54.9229" y="8.57709" width="1.61538" height="1.61538" fill="#ACDF62"/>
<rect x="58.1537" y="8.57709" width="1.61538" height="1.61538" fill="#ACDF62"/>
<rect x="59.7692" y="10.1925" width="1.61538" height="1.61538" fill="#ACDF62"/>
<rect x="54.9229" y="11.8077" width="1.61538" height="1.61538" fill="#ACDF62"/>
<rect x="54.9229" y="15.0386" width="1.61538" height="1.61538" fill="#ACDF62"/>
<rect x="58.1537" y="11.8077" width="1.61538" height="1.61538" fill="#ACDF62"/>
<rect x="58.1537" y="15.0386" width="1.61538" height="1.61538" fill="#ACDF62"/>
<rect x="59.7692" y="13.4231" width="1.61538" height="1.61538" fill="#ACDF62"/>
<rect x="59.7692" y="15.0386" width="1.61538" height="1.61538" fill="#ACDF62"/>
<rect x="51.6925" y="11.8077" width="1.61538" height="1.61538" fill="#ACDF62"/>
<rect x="51.6925" y="13.4231" width="1.61538" height="1.61538" fill="#ACDF62"/>
<rect x="27.4617" y="8.57709" width="1.61538" height="1.61538" fill="#ACDF62"/>
<rect x="35.5387" y="8.57715" width="1.61538" height="1.61538" fill="#ACDF62"/>
<rect x="27.4617" y="10.1925" width="1.61538" height="1.61538" fill="#ACDF62"/>
<rect x="35.5387" y="10.1924" width="1.61538" height="1.61538" fill="#ACDF62"/>
<rect x="27.4617" y="11.8077" width="1.61538" height="1.61538" fill="#ACDF62"/>
<rect x="35.5387" y="11.8076" width="1.61538" height="1.61538" fill="#ACDF62"/>
<rect x="27.4617" y="13.4231" width="1.61538" height="1.61538" fill="#ACDF62"/>
<rect x="35.5387" y="13.4231" width="1.61538" height="1.61538" fill="#ACDF62"/>
<rect x="29.0771" y="15.0386" width="1.61538" height="1.61538" fill="#ACDF62"/>
<rect x="32.3075" y="15.0386" width="1.61538" height="1.61538" fill="#ACDF62"/>
<rect x="29.0771" y="8.57709" width="1.61538" height="1.61538" fill="#ACDF62"/>
<rect x="37.1537" y="8.57709" width="1.61538" height="1.61538" fill="#ACDF62"/>
<rect x="29.0771" y="10.1925" width="1.61538" height="1.61538" fill="#ACDF62"/>
<rect x="37.1537" y="10.1925" width="1.61538" height="1.61538" fill="#ACDF62"/>
<rect x="29.0771" y="11.8077" width="1.61538" height="1.61538" fill="#ACDF62"/>
<rect x="37.1537" y="11.8077" width="1.61538" height="1.61538" fill="#ACDF62"/>
<rect x="29.0771" y="13.4231" width="1.61538" height="1.61538" fill="#ACDF62"/>
<rect x="37.1537" y="13.4231" width="1.61538" height="1.61538" fill="#ACDF62"/>
<rect x="30.6925" y="15.0386" width="1.61538" height="1.61538" fill="#ACDF62"/>
<rect x="33.9229" y="15.0386" width="1.61538" height="1.61538" fill="#ACDF62"/>
<rect x="35.5387" y="15.0386" width="1.61538" height="1.61538" fill="#ACDF62"/>
<rect x="51.6925" y="15.0386" width="1.61538" height="1.61538" fill="#ACDF62"/>
<rect x="53.3075" y="10.1925" width="1.61538" height="1.61538" fill="#ACDF62"/>
<rect x="56.5387" y="8.57715" width="1.61538" height="1.61538" fill="#ACDF62"/>
<rect x="59.7692" y="8.57709" width="1.61538" height="1.61538" fill="#ACDF62"/>
<rect x="61.3849" y="10.1924" width="1.61538" height="1.61538" fill="#ACDF62"/>
<rect x="56.5387" y="11.8076" width="1.61538" height="1.61538" fill="#ACDF62"/>
<rect x="56.5387" y="15.0386" width="1.61538" height="1.61538" fill="#ACDF62"/>
<rect x="59.7692" y="11.8077" width="1.61538" height="1.61538" fill="#ACDF62"/>
<rect x="61.3849" y="13.4231" width="1.61538" height="1.61538" fill="#ACDF62"/>
<rect x="61.3849" y="15.0386" width="1.61538" height="1.61538" fill="#ACDF62"/>
<rect x="53.3075" y="8.57709" width="1.61538" height="1.61538" fill="#ACDF62"/>
<rect x="53.3075" y="11.8077" width="1.61538" height="1.61538" fill="#ACDF62"/>
<rect x="53.3075" y="13.4231" width="1.61538" height="1.61538" fill="#ACDF62"/>
<rect x="53.3075" y="15.0386" width="1.61538" height="1.61538" fill="#ACDF62"/>
</svg>
